<svg xmlns="http://www.w3.org/2000/svg" width="726" height="113" viewBox="0 0 726 113" fill="none">
    <g clip-path="url(#clip0_11_3)">
        <path
            d="M50 113C77.6142 113 100 90.6142 100 63C100 35.3858 77.6142 13 50 13C22.3858 13 0 35.3858 0 63C0 90.6142 22.3858 113 50 113Z"
            fill="white" />
        <path
            d="M50 111C76.5097 111 98 89.5097 98 63C98 36.4903 76.5097 15 50 15C23.4903 15 2 36.4903 2 63C2 89.5097 23.4903 111 50 111Z"
            fill="#18181B" />
        <path d="M23 52.5L83 73.5V49.5L23 28.5V52.5Z" fill="#4ADE80" />
        <path d="M83 76.5L23 97.5V73.5L83 52.5V76.5Z" fill="#BBF7D0" />
        <path
            d="M537.9 43.8C535.1 41.4 531.3 40.2 526.5 40.2H508V87.2H515.7V67.8H526.5C531.2 67.8 535 66.6 537.9 64.1C540.8 61.6 542.3 58.2 542.3 53.9C542.3 49.7 540.8 46.3 537.9 43.8ZM532.6 58.8C531.3 60 529.1 60.5 526.3 60.5H515.8V47.4H526.3C529.2 47.4 531.3 48 532.6 49.1C533.9 50.2 534.5 51.8 534.5 53.9C534.5 56.1 533.8 57.7 532.6 58.8ZM564.1 52.8L562.4 52.4C561.5 52.2 560.5 52.1 559.3 52.1C556.8 52.1 554.4 52.8 552.4 54C552 54.2 551.6 54.5 551.3 54.8L551.1 52.8H543.5L543.8 55.1C544.1 57.5 544.3 60.2 544.3 63.2V87H551.9V67.4C551.9 65.1 552.5 63.3 553.7 61.6C554.8 60.2 556.5 59.5 558.9 59.5C559.8 59.5 560.6 59.6 561.3 59.7L563.6 60.2L564.1 52.8ZM585.8 54.4C583.4 52.9 580.6 52.2 577.5 52.2C574.4 52.2 571.6 52.9 569.1 54.4C566.7 55.9 564.8 58 563.5 60.7C562.2 63.3 561.6 66.4 561.6 69.8C561.6 73.2 562.2 76.3 563.5 78.9C564.8 81.6 566.7 83.7 569.1 85.2C571.5 86.7 574.3 87.4 577.5 87.4C580.6 87.4 583.4 86.6 585.8 85.2C588.2 83.7 590.1 81.6 591.4 78.9C592.7 76.3 593.3 73.2 593.3 69.8C593.3 66.4 592.7 63.3 591.4 60.7C590.1 58 588.2 55.9 585.8 54.4ZM583.4 77.8C582 79.5 580.1 80.3 577.5 80.3C574.9 80.3 573 79.5 571.7 77.8C570.3 76 569.6 73.4 569.6 69.8C569.6 66.3 570.3 63.7 571.8 61.8C573.2 60.1 575.1 59.3 577.6 59.3C580.1 59.3 582 60.1 583.4 61.8C584.9 63.6 585.6 66.3 585.6 69.8C585.5 73.4 584.8 76 583.4 77.8ZM630.7 52.2C628 52.2 625.6 52.8 623.5 54C622.5 54.6 621.5 55.4 620.8 56.2C619.1 54 616.2 52.2 611.3 52.2C608.7 52.2 606.4 52.8 604.4 54.1C604 54.4 603.6 54.6 603.2 54.9L603 52.9H595.4L595.7 55.2C596 57.6 596.2 60.3 596.2 63.3V87.1H603.8V67.7C603.8 65 604.4 63 605.7 61.5C606.9 60.1 608.6 59.4 610.7 59.4C612.4 59.4 613.6 59.8 614.3 60.7C614.9 61.4 615.5 62.9 615.5 66.1V87.1H623.2V67.7C623.2 65 623.8 62.9 625.1 61.5C626.3 60.1 627.9 59.4 630.1 59.4C631.8 59.4 633 59.8 633.7 60.7C634.2 61.4 634.9 62.9 634.9 66.1V87.1H642.6V65.9C642.6 60.8 641.1 52.2 630.7 52.2ZM671.4 54.5C669.1 53 666.3 52.2 663.3 52.2C660.4 52.2 657.8 52.9 655.7 54.2C655.2 54.5 654.7 54.9 654.3 55.3L654.1 52.9H646.5L646.8 55.2C647.1 57.6 647.3 60.3 647.3 63.3V100.2H654.9V84.9C655.2 85.1 655.5 85.3 655.8 85.6C657.9 86.9 660.4 87.6 663.3 87.6C666.3 87.6 669 86.8 671.4 85.4C673.8 83.9 675.6 81.8 676.9 79.1C678.1 76.5 678.7 73.5 678.7 70C678.7 66.6 678.1 63.5 676.8 60.9C675.6 58.1 673.7 56 671.4 54.5ZM668.7 77.8C667.3 79.5 665.4 80.3 662.8 80.3C660.3 80.3 658.4 79.5 657 77.8C655.6 76 654.8 73.3 654.8 69.9C654.8 66.4 655.5 63.7 657 61.9C658.3 60.2 660.2 59.4 662.8 59.4C665.3 59.4 667.2 60.2 668.6 62C670.1 63.9 670.8 66.6 670.8 70C670.9 73.4 670.1 76 668.7 77.8ZM716.4 67.1L711.2 65.8C709.9 65.5 708.9 65 708.4 64.5C708.1 64.2 707.7 63.7 707.7 62.6C707.7 61.6 708 60.9 708.8 60.4C709.7 59.7 711.2 59.4 713 59.4C715.8 59.4 718.4 60.4 720.8 62.5L722.8 64.2L725.9 57.8L725 56.8C723.6 55.3 721.8 54.1 719.7 53.3C717.7 52.5 715.4 52.1 713.1 52.1C709.3 52.1 706.2 53 703.8 54.9C701.3 56.9 700 59.6 700 62.8C700 65.3 700.9 67.4 702.6 69.3C704.3 71 706.5 72.2 709.3 72.9L714.4 74C716.4 74.5 717.4 75.1 717.8 75.4C718.1 75.6 718.4 76.1 718.4 77.2C718.4 78.2 718.1 78.8 717.3 79.3C716.4 79.9 714.8 80.3 712.7 80.3C710.8 80.3 709.1 80.1 707.7 79.6C706.3 79.1 704.9 78.3 703.5 77.1L701.5 75.4L699.5 79.8V78.8L696.8 79.7C696 80 695.1 80.1 694.2 80.1C693 80.1 692.1 79.8 691.5 79.3C691.3 79.1 690.7 78.2 690.7 75.7V59.7H699.6V52.7H690.7V42.6L683 45.5V52.9H677V59.9H683V76.6C683 80.1 684 82.8 685.8 84.7C687.7 86.6 690.3 87.5 693.4 87.5C694.9 87.5 696.4 87.3 697.8 87L699.3 86.6V82.9L699.4 83C702.6 86 707 87.6 712.4 87.6C716.4 87.6 719.6 86.7 722 84.9C724.6 83 725.9 80.4 725.9 77.2C726 73.5 724.3 68.9 716.4 67.1Z"
            fill="white" />
        <path
            d="M510 42.2H526.5C530.8 42.2 534.2 43.2 536.6 45.3C539 47.4 540.3 50.3 540.3 53.9C540.3 57.6 539.1 60.5 536.6 62.6C534.1 64.7 530.8 65.8 526.5 65.8H513.7V85.1H510V42.2ZM526.2 62.6C529.6 62.6 532.1 61.9 533.8 60.4C535.5 58.9 536.4 56.8 536.4 54C536.4 51.3 535.5 49.2 533.8 47.7C532.1 46.2 529.5 45.5 526.2 45.5H513.7V62.7H526.2V62.6ZM562 54.4L561.8 57.7C561 57.5 560.1 57.5 559 57.5C556 57.5 553.7 58.5 552.2 60.4C550.7 62.4 549.9 64.7 549.9 67.4V85.1H546.3V63.3C546.3 60.2 546.1 57.4 545.8 54.9H549.3L549.8 60.5C550.6 58.4 551.8 56.9 553.5 55.8C555.2 54.7 557.1 54.2 559.3 54.2C560.4 54.2 561.3 54.3 562 54.4ZM570.2 83.6C568.1 82.3 566.5 80.5 565.3 78.1C564.2 75.7 563.6 73 563.6 69.8C563.6 66.7 564.2 63.9 565.3 61.5C566.4 59.1 568.1 57.3 570.2 56C572.3 54.7 574.7 54.1 577.5 54.1C580.2 54.1 582.6 54.7 584.7 56C586.8 57.3 588.4 59.1 589.5 61.5C590.6 63.9 591.2 66.6 591.2 69.8C591.2 72.9 590.6 75.7 589.5 78.1C588.4 80.5 586.7 82.3 584.7 83.6C582.6 84.9 580.2 85.5 577.5 85.5C574.8 85.6 572.3 84.9 570.2 83.6ZM584.9 79.1C586.6 76.9 587.5 73.9 587.5 69.9C587.5 66 586.6 62.9 584.9 60.7C583.1 58.5 580.7 57.4 577.6 57.4C574.4 57.4 572 58.5 570.2 60.7C568.4 62.9 567.6 66 567.6 69.9C567.6 73.9 568.5 77 570.2 79.1C571.9 81.2 574.4 82.3 577.6 82.3C580.7 82.3 583.2 81.2 584.9 79.1ZM640.6 65.9V85.2H637V66.2C637 63.1 636.5 60.9 635.4 59.5C634.3 58.1 632.6 57.4 630.2 57.4C627.4 57.4 625.3 58.3 623.7 60.2C622.1 62.1 621.3 64.6 621.3 67.7V85.1H617.6V66.1C617.6 63 617 60.8 615.9 59.4C614.8 58 613.1 57.3 610.7 57.3C608 57.3 605.8 58.2 604.2 60.1C602.6 62 601.8 64.5 601.8 67.6V85H598.2V63.3C598.2 60.2 598 57.4 597.7 54.9H601.2L601.7 60.3C602.5 58.3 603.8 56.8 605.5 55.7C607.2 54.7 609.1 54.1 611.3 54.1C616.2 54.1 619.3 56.1 620.6 60C621.4 58.1 622.8 56.7 624.5 55.7C626.3 54.7 628.3 54.1 630.7 54.1C637.3 54.2 640.6 58.1 640.6 65.9ZM670.3 56.1C672.3 57.4 673.9 59.3 675 61.7C676.1 64.1 676.7 66.9 676.7 70C676.7 73.1 676.1 75.9 675 78.2C673.9 80.5 672.3 82.3 670.3 83.6C668.3 84.9 665.9 85.5 663.3 85.5C660.8 85.5 658.6 84.9 656.8 83.8C655 82.7 653.7 81.1 652.8 79V98.1H649.2V63.3C649.2 60.2 649 57.4 648.7 54.9H652.2L652.7 60.8C653.6 58.7 654.9 57 656.8 55.9C658.6 54.8 660.8 54.2 663.3 54.2C666 54.2 668.3 54.8 670.3 56.1ZM670.2 79.1C672 76.9 672.8 73.9 672.8 70C672.8 66.1 671.9 63 670.2 60.7C668.4 58.5 666 57.3 662.9 57.3C659.7 57.3 657.2 58.4 655.5 60.6C653.8 62.8 652.9 65.9 652.9 69.8C652.9 73.7 653.8 76.8 655.5 79C657.2 81.2 659.7 82.3 662.8 82.3C666 82.3 668.5 81.2 670.2 79.1ZM688.7 57.9V75.9C688.7 78.3 689.2 80 690.1 80.9C691 81.8 692.4 82.3 694.2 82.3C695.3 82.3 696.4 82.1 697.4 81.8V85C696.1 85.3 694.8 85.5 693.5 85.5C690.9 85.5 688.8 84.8 687.3 83.3C685.8 81.8 685 79.6 685 76.6V57.9H679V54.9H685V46.9L688.7 45.5V54.9H697.6V57.9H688.7ZM700.8 81.5L702.1 78.7C703.7 80 705.3 81 706.9 81.5C708.5 82.1 710.4 82.3 712.5 82.3C715 82.3 716.9 81.9 718.2 81C719.5 80.1 720.2 78.9 720.2 77.2C720.2 75.8 719.8 74.8 718.9 74C718 73.2 716.6 72.6 714.7 72.1L709.6 71C707.2 70.4 705.3 69.4 703.9 68C702.5 66.6 701.8 64.9 701.8 62.9C701.8 60.2 702.8 58.1 704.8 56.5C706.8 54.9 709.5 54.1 712.9 54.1C715 54.1 717 54.4 718.8 55.1C720.6 55.8 722.1 56.8 723.3 58.1L721.9 60.9C719.1 58.5 716.1 57.3 712.8 57.3C710.5 57.3 708.7 57.8 707.4 58.7C706.1 59.6 705.5 60.9 705.5 62.6C705.5 64 705.9 65.1 706.7 65.9C707.5 66.7 708.8 67.4 710.5 67.8L715.7 69.1C721.1 70.3 723.8 73 723.8 77.1C723.8 79.6 722.8 81.7 720.7 83.2C718.6 84.7 715.8 85.5 712.3 85.5C707.6 85.6 703.7 84.2 700.8 81.5Z"
            fill="black" />
        <mask id="path-7-outside-1_11_3" maskUnits="userSpaceOnUse" x="139" y="36" width="345" height="66" fill="black">
            <rect fill="white" x="139" y="36" width="345" height="66" />
            <path
                d="M181.091 54H175.455C175.121 52.3788 174.538 50.9545 173.705 49.7273C172.886 48.5 171.886 47.4697 170.705 46.6364C169.538 45.7879 168.242 45.1515 166.818 44.7273C165.394 44.303 163.909 44.0909 162.364 44.0909C159.545 44.0909 156.992 44.803 154.705 46.2273C152.432 47.6515 150.621 49.75 149.273 52.5227C147.939 55.2955 147.273 58.697 147.273 62.7273C147.273 66.7576 147.939 70.1591 149.273 72.9318C150.621 75.7045 152.432 77.803 154.705 79.2273C156.992 80.6515 159.545 81.3636 162.364 81.3636C163.909 81.3636 165.394 81.1515 166.818 80.7273C168.242 80.303 169.538 79.6742 170.705 78.8409C171.886 77.9924 172.886 76.9545 173.705 75.7273C174.538 74.4848 175.121 73.0606 175.455 71.4545H181.091C180.667 73.8333 179.894 75.9621 178.773 77.8409C177.652 79.7197 176.258 81.3182 174.591 82.6364C172.924 83.9394 171.053 84.9318 168.977 85.6136C166.917 86.2955 164.712 86.6364 162.364 86.6364C158.394 86.6364 154.864 85.6667 151.773 83.7273C148.682 81.7879 146.25 79.0303 144.477 75.4545C142.705 71.8788 141.818 67.6364 141.818 62.7273C141.818 57.8182 142.705 53.5758 144.477 50C146.25 46.4242 148.682 43.6667 151.773 41.7273C154.864 39.7879 158.394 38.8182 162.364 38.8182C164.712 38.8182 166.917 39.1591 168.977 39.8409C171.053 40.5227 172.924 41.5227 174.591 42.8409C176.258 44.1439 177.652 45.7348 178.773 47.6136C179.894 49.4773 180.667 51.6061 181.091 54ZM203.653 86.7273C200.502 86.7273 197.737 85.9773 195.358 84.4773C192.994 82.9773 191.146 80.8788 189.812 78.1818C188.494 75.4848 187.835 72.3333 187.835 68.7273C187.835 65.0909 188.494 61.9167 189.812 59.2045C191.146 56.4924 192.994 54.3864 195.358 52.8864C197.737 51.3864 200.502 50.6364 203.653 50.6364C206.805 50.6364 209.563 51.3864 211.926 52.8864C214.305 54.3864 216.153 56.4924 217.472 59.2045C218.805 61.9167 219.472 65.0909 219.472 68.7273C219.472 72.3333 218.805 75.4848 217.472 78.1818C216.153 80.8788 214.305 82.9773 211.926 84.4773C209.563 85.9773 206.805 86.7273 203.653 86.7273ZM203.653 81.9091C206.047 81.9091 208.017 81.2955 209.562 80.0682C211.108 78.8409 212.252 77.2273 212.994 75.2273C213.737 73.2273 214.108 71.0606 214.108 68.7273C214.108 66.3939 213.737 64.2197 212.994 62.2045C212.252 60.1894 211.108 58.5606 209.562 57.3182C208.017 56.0758 206.047 55.4545 203.653 55.4545C201.259 55.4545 199.29 56.0758 197.744 57.3182C196.199 58.5606 195.055 60.1894 194.312 62.2045C193.57 64.2197 193.199 66.3939 193.199 68.7273C193.199 71.0606 193.57 73.2273 194.312 75.2273C195.055 77.2273 196.199 78.8409 197.744 80.0682C199.29 81.2955 201.259 81.9091 203.653 81.9091ZM227.659 86V51.0909H232.841V56.5455H233.295C234.023 54.6818 235.197 53.2348 236.818 52.2045C238.439 51.1591 240.386 50.6364 242.659 50.6364C244.962 50.6364 246.879 51.1591 248.409 52.2045C249.955 53.2348 251.159 54.6818 252.023 56.5455H252.386C253.28 54.7424 254.621 53.3106 256.409 52.25C258.197 51.1742 260.341 50.6364 262.841 50.6364C265.962 50.6364 268.515 51.6136 270.5 53.5682C272.485 55.5076 273.477 58.5303 273.477 62.6364V86H268.114V62.6364C268.114 60.0606 267.409 58.2197 266 57.1136C264.591 56.0076 262.932 55.4545 261.023 55.4545C258.568 55.4545 256.667 56.197 255.318 57.6818C253.97 59.1515 253.295 61.0152 253.295 63.2727V86H247.841V62.0909C247.841 60.1061 247.197 58.5076 245.909 57.2955C244.621 56.0682 242.962 55.4545 240.932 55.4545C239.538 55.4545 238.235 55.8258 237.023 56.5682C235.826 57.3106 234.856 58.3409 234.114 59.6591C233.386 60.9621 233.023 62.4697 233.023 64.1818V86H227.659ZM283.284 86V51.0909H288.466V56.5455H288.92C289.648 54.6818 290.822 53.2348 292.443 52.2045C294.064 51.1591 296.011 50.6364 298.284 50.6364C300.587 50.6364 302.504 51.1591 304.034 52.2045C305.58 53.2348 306.784 54.6818 307.648 56.5455H308.011C308.905 54.7424 310.246 53.3106 312.034 52.25C313.822 51.1742 315.966 50.6364 318.466 50.6364C321.587 50.6364 324.14 51.6136 326.125 53.5682C328.11 55.5076 329.102 58.5303 329.102 62.6364V86H323.739V62.6364C323.739 60.0606 323.034 58.2197 321.625 57.1136C320.216 56.0076 318.557 55.4545 316.648 55.4545C314.193 55.4545 312.292 56.197 310.943 57.6818C309.595 59.1515 308.92 61.0152 308.92 63.2727V86H303.466V62.0909C303.466 60.1061 302.822 58.5076 301.534 57.2955C300.246 56.0682 298.587 55.4545 296.557 55.4545C295.163 55.4545 293.86 55.8258 292.648 56.5682C291.451 57.3106 290.481 58.3409 289.739 59.6591C289.011 60.9621 288.648 62.4697 288.648 64.1818V86H283.284ZM360.909 71.7273V51.0909H366.273V86H360.909V80.0909H360.545C359.727 81.8636 358.455 83.3712 356.727 84.6136C355 85.8409 352.818 86.4545 350.182 86.4545C348 86.4545 346.061 85.9773 344.364 85.0227C342.667 84.053 341.333 82.5985 340.364 80.6591C339.394 78.7045 338.909 76.2424 338.909 73.2727V51.0909H344.273V72.9091C344.273 75.4545 344.985 77.4848 346.409 79C347.848 80.5152 349.682 81.2727 351.909 81.2727C353.242 81.2727 354.598 80.9318 355.977 80.25C357.371 79.5682 358.538 78.5227 359.477 77.1136C360.432 75.7045 360.909 73.9091 360.909 71.7273ZM381.46 65V86H376.097V51.0909H381.278V56.5455H381.733C382.551 54.7727 383.794 53.3485 385.46 52.2727C387.127 51.1818 389.278 50.6364 391.915 50.6364C394.278 50.6364 396.347 51.1212 398.119 52.0909C399.892 53.0455 401.271 54.5 402.256 56.4545C403.241 58.3939 403.733 60.8485 403.733 63.8182V86H398.369V64.1818C398.369 61.4394 397.657 59.303 396.233 57.7727C394.809 56.2273 392.854 55.4545 390.369 55.4545C388.657 55.4545 387.127 55.8258 385.778 56.5682C384.445 57.3106 383.392 58.3939 382.619 59.8182C381.847 61.2424 381.46 62.9697 381.46 65ZM413.534 86V51.0909H418.898V86H413.534ZM416.261 45.2727C415.216 45.2727 414.314 44.9167 413.557 44.2045C412.814 43.4924 412.443 42.6364 412.443 41.6364C412.443 40.6364 412.814 39.7803 413.557 39.0682C414.314 38.3561 415.216 38 416.261 38C417.307 38 418.201 38.3561 418.943 39.0682C419.701 39.7803 420.08 40.6364 420.08 41.6364C420.08 42.6364 419.701 43.4924 418.943 44.2045C418.201 44.9167 417.307 45.2727 416.261 45.2727ZM443.903 51.0909V55.6364H425.812V51.0909H443.903ZM431.085 42.7273H436.449V76C436.449 77.5152 436.669 78.6515 437.108 79.4091C437.563 80.1515 438.138 80.6515 438.835 80.9091C439.547 81.1515 440.297 81.2727 441.085 81.2727C441.676 81.2727 442.161 81.2424 442.54 81.1818C442.919 81.1061 443.222 81.0455 443.449 81L444.54 85.8182C444.176 85.9545 443.669 86.0909 443.017 86.2273C442.366 86.3788 441.54 86.4545 440.54 86.4545C439.025 86.4545 437.54 86.1288 436.085 85.4773C434.646 84.8258 433.449 83.8333 432.494 82.5C431.555 81.1667 431.085 79.4848 431.085 77.4545V42.7273ZM455.426 99.0909C454.517 99.0909 453.706 99.0152 452.994 98.8636C452.282 98.7273 451.79 98.5909 451.517 98.4545L452.881 93.7273C454.184 94.0606 455.335 94.1818 456.335 94.0909C457.335 94 458.222 93.553 458.994 92.75C459.782 91.9621 460.502 90.6818 461.153 88.9091L462.153 86.1818L449.244 51.0909H455.062L464.699 78.9091H465.062L474.699 51.0909H480.517L465.699 91.0909C465.032 92.8939 464.206 94.3864 463.222 95.5682C462.237 96.7652 461.093 97.6515 459.79 98.2273C458.502 98.803 457.047 99.0909 455.426 99.0909Z" />
        </mask>
        <path
            d="M181.091 54H175.455C175.121 52.3788 174.538 50.9545 173.705 49.7273C172.886 48.5 171.886 47.4697 170.705 46.6364C169.538 45.7879 168.242 45.1515 166.818 44.7273C165.394 44.303 163.909 44.0909 162.364 44.0909C159.545 44.0909 156.992 44.803 154.705 46.2273C152.432 47.6515 150.621 49.75 149.273 52.5227C147.939 55.2955 147.273 58.697 147.273 62.7273C147.273 66.7576 147.939 70.1591 149.273 72.9318C150.621 75.7045 152.432 77.803 154.705 79.2273C156.992 80.6515 159.545 81.3636 162.364 81.3636C163.909 81.3636 165.394 81.1515 166.818 80.7273C168.242 80.303 169.538 79.6742 170.705 78.8409C171.886 77.9924 172.886 76.9545 173.705 75.7273C174.538 74.4848 175.121 73.0606 175.455 71.4545H181.091C180.667 73.8333 179.894 75.9621 178.773 77.8409C177.652 79.7197 176.258 81.3182 174.591 82.6364C172.924 83.9394 171.053 84.9318 168.977 85.6136C166.917 86.2955 164.712 86.6364 162.364 86.6364C158.394 86.6364 154.864 85.6667 151.773 83.7273C148.682 81.7879 146.25 79.0303 144.477 75.4545C142.705 71.8788 141.818 67.6364 141.818 62.7273C141.818 57.8182 142.705 53.5758 144.477 50C146.25 46.4242 148.682 43.6667 151.773 41.7273C154.864 39.7879 158.394 38.8182 162.364 38.8182C164.712 38.8182 166.917 39.1591 168.977 39.8409C171.053 40.5227 172.924 41.5227 174.591 42.8409C176.258 44.1439 177.652 45.7348 178.773 47.6136C179.894 49.4773 180.667 51.6061 181.091 54ZM203.653 86.7273C200.502 86.7273 197.737 85.9773 195.358 84.4773C192.994 82.9773 191.146 80.8788 189.812 78.1818C188.494 75.4848 187.835 72.3333 187.835 68.7273C187.835 65.0909 188.494 61.9167 189.812 59.2045C191.146 56.4924 192.994 54.3864 195.358 52.8864C197.737 51.3864 200.502 50.6364 203.653 50.6364C206.805 50.6364 209.563 51.3864 211.926 52.8864C214.305 54.3864 216.153 56.4924 217.472 59.2045C218.805 61.9167 219.472 65.0909 219.472 68.7273C219.472 72.3333 218.805 75.4848 217.472 78.1818C216.153 80.8788 214.305 82.9773 211.926 84.4773C209.563 85.9773 206.805 86.7273 203.653 86.7273ZM203.653 81.9091C206.047 81.9091 208.017 81.2955 209.562 80.0682C211.108 78.8409 212.252 77.2273 212.994 75.2273C213.737 73.2273 214.108 71.0606 214.108 68.7273C214.108 66.3939 213.737 64.2197 212.994 62.2045C212.252 60.1894 211.108 58.5606 209.562 57.3182C208.017 56.0758 206.047 55.4545 203.653 55.4545C201.259 55.4545 199.29 56.0758 197.744 57.3182C196.199 58.5606 195.055 60.1894 194.312 62.2045C193.57 64.2197 193.199 66.3939 193.199 68.7273C193.199 71.0606 193.57 73.2273 194.312 75.2273C195.055 77.2273 196.199 78.8409 197.744 80.0682C199.29 81.2955 201.259 81.9091 203.653 81.9091ZM227.659 86V51.0909H232.841V56.5455H233.295C234.023 54.6818 235.197 53.2348 236.818 52.2045C238.439 51.1591 240.386 50.6364 242.659 50.6364C244.962 50.6364 246.879 51.1591 248.409 52.2045C249.955 53.2348 251.159 54.6818 252.023 56.5455H252.386C253.28 54.7424 254.621 53.3106 256.409 52.25C258.197 51.1742 260.341 50.6364 262.841 50.6364C265.962 50.6364 268.515 51.6136 270.5 53.5682C272.485 55.5076 273.477 58.5303 273.477 62.6364V86H268.114V62.6364C268.114 60.0606 267.409 58.2197 266 57.1136C264.591 56.0076 262.932 55.4545 261.023 55.4545C258.568 55.4545 256.667 56.197 255.318 57.6818C253.97 59.1515 253.295 61.0152 253.295 63.2727V86H247.841V62.0909C247.841 60.1061 247.197 58.5076 245.909 57.2955C244.621 56.0682 242.962 55.4545 240.932 55.4545C239.538 55.4545 238.235 55.8258 237.023 56.5682C235.826 57.3106 234.856 58.3409 234.114 59.6591C233.386 60.9621 233.023 62.4697 233.023 64.1818V86H227.659ZM283.284 86V51.0909H288.466V56.5455H288.92C289.648 54.6818 290.822 53.2348 292.443 52.2045C294.064 51.1591 296.011 50.6364 298.284 50.6364C300.587 50.6364 302.504 51.1591 304.034 52.2045C305.58 53.2348 306.784 54.6818 307.648 56.5455H308.011C308.905 54.7424 310.246 53.3106 312.034 52.25C313.822 51.1742 315.966 50.6364 318.466 50.6364C321.587 50.6364 324.14 51.6136 326.125 53.5682C328.11 55.5076 329.102 58.5303 329.102 62.6364V86H323.739V62.6364C323.739 60.0606 323.034 58.2197 321.625 57.1136C320.216 56.0076 318.557 55.4545 316.648 55.4545C314.193 55.4545 312.292 56.197 310.943 57.6818C309.595 59.1515 308.92 61.0152 308.92 63.2727V86H303.466V62.0909C303.466 60.1061 302.822 58.5076 301.534 57.2955C300.246 56.0682 298.587 55.4545 296.557 55.4545C295.163 55.4545 293.86 55.8258 292.648 56.5682C291.451 57.3106 290.481 58.3409 289.739 59.6591C289.011 60.9621 288.648 62.4697 288.648 64.1818V86H283.284ZM360.909 71.7273V51.0909H366.273V86H360.909V80.0909H360.545C359.727 81.8636 358.455 83.3712 356.727 84.6136C355 85.8409 352.818 86.4545 350.182 86.4545C348 86.4545 346.061 85.9773 344.364 85.0227C342.667 84.053 341.333 82.5985 340.364 80.6591C339.394 78.7045 338.909 76.2424 338.909 73.2727V51.0909H344.273V72.9091C344.273 75.4545 344.985 77.4848 346.409 79C347.848 80.5152 349.682 81.2727 351.909 81.2727C353.242 81.2727 354.598 80.9318 355.977 80.25C357.371 79.5682 358.538 78.5227 359.477 77.1136C360.432 75.7045 360.909 73.9091 360.909 71.7273ZM381.46 65V86H376.097V51.0909H381.278V56.5455H381.733C382.551 54.7727 383.794 53.3485 385.46 52.2727C387.127 51.1818 389.278 50.6364 391.915 50.6364C394.278 50.6364 396.347 51.1212 398.119 52.0909C399.892 53.0455 401.271 54.5 402.256 56.4545C403.241 58.3939 403.733 60.8485 403.733 63.8182V86H398.369V64.1818C398.369 61.4394 397.657 59.303 396.233 57.7727C394.809 56.2273 392.854 55.4545 390.369 55.4545C388.657 55.4545 387.127 55.8258 385.778 56.5682C384.445 57.3106 383.392 58.3939 382.619 59.8182C381.847 61.2424 381.46 62.9697 381.46 65ZM413.534 86V51.0909H418.898V86H413.534ZM416.261 45.2727C415.216 45.2727 414.314 44.9167 413.557 44.2045C412.814 43.4924 412.443 42.6364 412.443 41.6364C412.443 40.6364 412.814 39.7803 413.557 39.0682C414.314 38.3561 415.216 38 416.261 38C417.307 38 418.201 38.3561 418.943 39.0682C419.701 39.7803 420.08 40.6364 420.08 41.6364C420.08 42.6364 419.701 43.4924 418.943 44.2045C418.201 44.9167 417.307 45.2727 416.261 45.2727ZM443.903 51.0909V55.6364H425.812V51.0909H443.903ZM431.085 42.7273H436.449V76C436.449 77.5152 436.669 78.6515 437.108 79.4091C437.563 80.1515 438.138 80.6515 438.835 80.9091C439.547 81.1515 440.297 81.2727 441.085 81.2727C441.676 81.2727 442.161 81.2424 442.54 81.1818C442.919 81.1061 443.222 81.0455 443.449 81L444.54 85.8182C444.176 85.9545 443.669 86.0909 443.017 86.2273C442.366 86.3788 441.54 86.4545 440.54 86.4545C439.025 86.4545 437.54 86.1288 436.085 85.4773C434.646 84.8258 433.449 83.8333 432.494 82.5C431.555 81.1667 431.085 79.4848 431.085 77.4545V42.7273ZM455.426 99.0909C454.517 99.0909 453.706 99.0152 452.994 98.8636C452.282 98.7273 451.79 98.5909 451.517 98.4545L452.881 93.7273C454.184 94.0606 455.335 94.1818 456.335 94.0909C457.335 94 458.222 93.553 458.994 92.75C459.782 91.9621 460.502 90.6818 461.153 88.9091L462.153 86.1818L449.244 51.0909H455.062L464.699 78.9091H465.062L474.699 51.0909H480.517L465.699 91.0909C465.032 92.8939 464.206 94.3864 463.222 95.5682C462.237 96.7652 461.093 97.6515 459.79 98.2273C458.502 98.803 457.047 99.0909 455.426 99.0909Z"
            fill="black" />
        <path
            d="M181.091 54V56H183.477L183.06 53.651L181.091 54ZM175.455 54L173.496 54.4028L173.824 56H175.455V54ZM173.705 49.7273L172.04 50.8367L172.045 50.8437L172.05 50.8508L173.705 49.7273ZM170.705 46.6364L169.528 48.2538L169.54 48.2624L169.552 48.2709L170.705 46.6364ZM166.818 44.7273L166.247 46.644L166.247 46.644L166.818 44.7273ZM154.705 46.2273L153.648 44.5294L153.643 44.5325L154.705 46.2273ZM149.273 52.5227L147.474 51.648L147.47 51.656L149.273 52.5227ZM149.273 72.9318L147.47 73.7986L147.474 73.8065L149.273 72.9318ZM154.705 79.2273L153.643 80.922L153.648 80.9252L154.705 79.2273ZM166.818 80.7273L166.247 78.8105L166.247 78.8105L166.818 80.7273ZM170.705 78.8409L171.867 80.4684L171.871 80.4656L170.705 78.8409ZM173.705 75.7273L172.044 74.6132L172.04 74.6179L173.705 75.7273ZM175.455 71.4545V69.4545H173.827L173.496 71.0481L175.455 71.4545ZM181.091 71.4545L183.06 71.8057L183.479 69.4545H181.091V71.4545ZM178.773 77.8409L177.055 76.816L177.055 76.816L178.773 77.8409ZM174.591 82.6364L175.823 84.212L175.832 84.205L174.591 82.6364ZM168.977 85.6136L168.353 83.7135L168.349 83.7149L168.977 85.6136ZM151.773 83.7273L150.71 85.4214L150.71 85.4214L151.773 83.7273ZM144.477 75.4545L146.269 74.5662L146.269 74.5662L144.477 75.4545ZM144.477 50L142.685 49.1117L144.477 50ZM168.977 39.8409L168.349 41.7397L168.353 41.741L168.977 39.8409ZM174.591 42.8409L173.35 44.4096L173.359 44.4165L174.591 42.8409ZM178.773 47.6136L177.055 48.6386L177.059 48.6447L178.773 47.6136ZM181.091 52H175.455V56H181.091V52ZM177.414 53.5972C177.033 51.7479 176.357 50.0728 175.359 48.6038L172.05 50.8508C172.719 51.8363 173.209 53.0097 173.496 54.4028L177.414 53.5972ZM175.369 48.6179C174.417 47.1897 173.244 45.9801 171.857 45.0018L169.552 48.2709C170.528 48.9593 171.356 49.8103 172.04 50.8367L175.369 48.6179ZM171.881 45.0189C170.525 44.033 169.024 43.2975 167.389 42.8105L166.247 46.644C167.461 47.0055 168.55 47.5427 169.528 48.2538L171.881 45.0189ZM167.389 42.8105C165.772 42.3289 164.095 42.0909 162.364 42.0909V46.0909C163.724 46.0909 165.016 46.2772 166.247 46.644L167.389 42.8105ZM162.364 42.0909C159.19 42.0909 156.268 42.8984 153.648 44.5294L155.762 47.9252C157.717 46.7076 159.901 46.0909 162.364 46.0909V42.0909ZM153.643 44.5325C151.007 46.1841 148.961 48.5898 147.474 51.648L151.071 53.3974C152.281 50.9102 153.857 49.1189 155.767 47.922L153.643 44.5325ZM147.47 51.656C145.973 54.7694 145.273 58.4861 145.273 62.7273H149.273C149.273 58.9078 149.906 55.8215 151.075 53.3895L147.47 51.656ZM145.273 62.7273C145.273 66.9684 145.973 70.6851 147.47 73.7986L151.075 72.0651C149.906 69.6331 149.273 66.5467 149.273 62.7273H145.273ZM147.474 73.8065C148.961 76.8647 151.007 79.2705 153.643 80.922L155.767 77.5325C153.857 76.3356 152.281 74.5444 151.071 72.0571L147.474 73.8065ZM153.648 80.9252C156.268 82.5561 159.19 83.3636 162.364 83.3636V79.3636C159.901 79.3636 157.717 78.7469 155.762 77.5294L153.648 80.9252ZM162.364 83.3636C164.095 83.3636 165.772 83.1257 167.389 82.644L166.247 78.8105C165.016 79.1774 163.724 79.3636 162.364 79.3636V83.3636ZM167.389 82.644C169.017 82.159 170.514 81.4348 171.867 80.4684L169.542 77.2134C168.562 77.9137 167.467 78.447 166.247 78.8105L167.389 82.644ZM171.871 80.4656C173.251 79.4747 174.419 78.2614 175.369 76.8367L172.04 74.6179C171.354 75.6477 170.522 76.5101 169.538 77.2163L171.871 80.4656ZM175.366 76.8413C176.356 75.3646 177.032 73.6954 177.413 71.861L173.496 71.0481C173.21 72.4258 172.72 73.6051 172.044 74.6132L175.366 76.8413ZM175.455 73.4545H181.091V69.4545H175.455V73.4545ZM179.122 71.1034C178.736 73.269 178.04 75.1653 177.055 76.816L180.49 78.8658C181.748 76.7589 182.598 74.3976 183.06 71.8057L179.122 71.1034ZM177.055 76.816C176.055 78.4924 174.821 79.9048 173.35 81.0677L175.832 84.205C177.695 82.7316 179.248 80.947 180.49 78.8658L177.055 76.816ZM173.359 81.0607C171.881 82.2166 170.216 83.1015 168.353 83.7135L169.601 87.5138C171.89 86.7621 173.968 85.6622 175.823 84.212L173.359 81.0607ZM168.349 83.7149C166.507 84.3244 164.516 84.6364 162.364 84.6364V88.6364C164.908 88.6364 167.326 88.2666 169.606 87.5124L168.349 83.7149ZM162.364 84.6364C158.736 84.6364 155.58 83.7552 152.836 82.0331L150.71 85.4214C154.147 87.5781 158.052 88.6364 162.364 88.6364V84.6364ZM152.836 82.0331C150.086 80.3081 147.894 77.8433 146.269 74.5662L142.685 76.3429C144.606 80.2173 147.277 83.2676 150.71 85.4214L152.836 82.0331ZM146.269 74.5662C144.661 71.3228 143.818 67.3977 143.818 62.7273H139.818C139.818 67.875 140.748 72.4348 142.685 76.3429L146.269 74.5662ZM143.818 62.7273C143.818 58.0568 144.661 54.1318 146.269 50.8883L142.685 49.1117C140.748 53.0198 139.818 57.5796 139.818 62.7273H143.818ZM146.269 50.8883C147.894 47.6112 150.086 45.1464 152.836 43.4214L150.71 40.0331C147.277 42.1869 144.606 45.2373 142.685 49.1117L146.269 50.8883ZM152.836 43.4214C155.58 41.6994 158.736 40.8182 162.364 40.8182V36.8182C158.052 36.8182 154.147 37.8764 150.71 40.0331L152.836 43.4214ZM162.364 40.8182C164.516 40.8182 166.507 41.1302 168.349 41.7397L169.606 37.9422C167.326 37.188 164.908 36.8182 162.364 36.8182V40.8182ZM168.353 41.741C170.212 42.3516 171.873 43.2414 173.35 44.4096L175.832 41.2722C173.975 39.8041 171.894 38.6939 169.601 37.9408L168.353 41.741ZM173.359 44.4165C174.825 45.5623 176.056 46.9643 177.055 48.6385L180.49 46.5887C179.247 44.5053 177.691 42.7256 175.823 41.2653L173.359 44.4165ZM177.059 48.6447C178.04 50.2752 178.735 52.1678 179.122 54.349L183.06 53.651C182.598 51.0443 181.748 48.6793 180.486 46.5826L177.059 48.6447ZM195.358 84.4773L194.286 86.1659L194.291 86.169L195.358 84.4773ZM189.812 78.1818L188.016 79.0601L188.02 79.0682L189.812 78.1818ZM189.812 59.2045L188.018 58.3222L188.014 58.3303L189.812 59.2045ZM195.358 52.8864L194.291 51.1946L194.286 51.1977L195.358 52.8864ZM211.926 52.8864L210.854 54.575L210.859 54.5781L211.926 52.8864ZM217.472 59.2045L215.673 60.0788L215.677 60.0869L217.472 59.2045ZM217.472 78.1818L215.679 77.2954L215.675 77.3036L217.472 78.1818ZM211.926 84.4773L210.859 82.7855L210.854 82.7886L211.926 84.4773ZM209.562 80.0682L208.319 78.502L208.319 78.502L209.562 80.0682ZM212.994 75.2273L214.869 75.9233L214.869 75.9233L212.994 75.2273ZM212.994 62.2045L214.871 61.5131L214.871 61.5131L212.994 62.2045ZM209.562 57.3182L210.816 55.7594L210.816 55.7594L209.562 57.3182ZM197.744 57.3182L196.491 55.7594L196.491 55.7594L197.744 57.3182ZM194.312 62.2045L192.436 61.5131L192.436 61.5131L194.312 62.2045ZM194.312 75.2273L192.438 75.9233L192.438 75.9233L194.312 75.2273ZM197.744 80.0682L198.988 78.502L198.988 78.502L197.744 80.0682ZM203.653 84.7273C200.833 84.7273 198.447 84.0605 196.425 82.7855L194.291 86.169C197.027 87.894 200.171 88.7273 203.653 88.7273V84.7273ZM196.43 82.7886C194.398 81.4996 192.789 79.6895 191.605 77.2955L188.02 79.0682C189.503 82.0681 191.59 84.4549 194.286 86.1659L196.43 82.7886ZM191.609 77.3036C190.449 74.9297 189.835 72.0895 189.835 68.7273H185.835C185.835 72.5772 186.54 76.04 188.016 79.0601L191.609 77.3036ZM189.835 68.7273C189.835 65.3323 190.45 62.4681 191.611 60.0788L188.014 58.3303C186.539 61.3652 185.835 64.8495 185.835 68.7273H189.835ZM191.607 60.0869C192.792 57.6777 194.401 55.8622 196.43 54.575L194.286 51.1977C191.587 52.9105 189.5 55.3071 188.018 58.3222L191.607 60.0869ZM196.425 54.5781C198.447 53.3031 200.833 52.6364 203.653 52.6364V48.6364C200.171 48.6364 197.027 49.4696 194.291 51.1946L196.425 54.5781ZM203.653 52.6364C206.475 52.6364 208.85 53.3032 210.854 54.575L212.998 51.1977C210.275 49.4695 207.135 48.6364 203.653 48.6364V52.6364ZM210.859 54.5781C212.9 55.8647 214.505 57.6769 215.673 60.0788L219.27 58.3303C217.801 55.308 215.71 52.908 212.993 51.1946L210.859 54.5781ZM215.677 60.0869C216.85 62.4742 217.472 65.3354 217.472 68.7273H221.472C221.472 64.8464 220.759 61.3591 219.266 58.3222L215.677 60.0869ZM217.472 68.7273C217.472 72.0863 216.851 74.9236 215.679 77.2955L219.264 79.0682C220.759 76.0461 221.472 72.5804 221.472 68.7273H217.472ZM215.675 77.3036C214.508 79.6903 212.903 81.4971 210.859 82.7855L212.993 86.169C215.707 84.4574 217.799 82.0673 219.268 79.0601L215.675 77.3036ZM210.854 82.7886C208.85 84.0604 206.475 84.7273 203.653 84.7273V88.7273C207.135 88.7273 210.275 87.8941 212.998 86.1659L210.854 82.7886ZM203.653 83.9091C206.4 83.9091 208.836 83.1987 210.806 81.6344L208.319 78.502C207.198 79.3922 205.695 79.9091 203.653 79.9091V83.9091ZM210.806 81.6344C212.661 80.1618 214.011 78.2368 214.869 75.9233L211.119 74.5313C210.493 76.2178 209.555 77.52 208.319 78.502L210.806 81.6344ZM214.869 75.9233C215.702 73.6806 216.108 71.2759 216.108 68.7273H212.108C212.108 70.8453 211.772 72.774 211.119 74.5313L214.869 75.9233ZM216.108 68.7273C216.108 66.1784 215.702 63.7681 214.871 61.5131L211.118 62.896C211.772 64.6713 212.108 66.6094 212.108 68.7273H216.108ZM214.871 61.5131C214.014 59.1869 212.667 57.2479 210.816 55.7594L208.309 58.8769C209.549 59.8734 210.49 61.1919 211.118 62.896L214.871 61.5131ZM210.816 55.7594C208.846 54.1756 206.405 53.4545 203.653 53.4545V57.4545C205.689 57.4545 207.189 57.9759 208.309 58.8769L210.816 55.7594ZM203.653 53.4545C200.902 53.4545 198.461 54.1756 196.491 55.7594L198.997 58.8769C200.118 57.9759 201.617 57.4545 203.653 57.4545V53.4545ZM196.491 55.7594C194.64 57.2479 193.293 59.1869 192.436 61.5131L196.189 62.896C196.817 61.1919 197.758 59.8734 198.997 58.8769L196.491 55.7594ZM192.436 61.5131C191.605 63.7681 191.199 66.1784 191.199 68.7273H195.199C195.199 66.6094 195.535 64.6713 196.189 62.896L192.436 61.5131ZM191.199 68.7273C191.199 71.2759 191.605 73.6806 192.438 75.9233L196.187 74.5313C195.535 72.774 195.199 70.8453 195.199 68.7273H191.199ZM192.438 75.9233C193.296 78.2368 194.646 80.1618 196.501 81.6344L198.988 78.502C197.752 77.52 196.814 76.2178 196.187 74.5313L192.438 75.9233ZM196.501 81.6344C198.47 83.1987 200.907 83.9091 203.653 83.9091V79.9091C201.612 79.9091 200.109 79.3922 198.988 78.502L196.501 81.6344ZM227.659 86H225.659V88H227.659V86ZM227.659 51.0909V49.0909H225.659V51.0909H227.659ZM232.841 51.0909H234.841V49.0909H232.841V51.0909ZM232.841 56.5455H230.841V58.5455H232.841V56.5455ZM233.295 56.5455V58.5455H234.662L235.159 57.2725L233.295 56.5455ZM236.818 52.2045L237.891 53.8926L237.902 53.8854L236.818 52.2045ZM248.409 52.2045L247.281 53.856L247.29 53.8624L247.3 53.8686L248.409 52.2045ZM252.023 56.5455L250.208 57.3864L250.745 58.5455H252.023V56.5455ZM252.386 56.5455V58.5455H253.627L254.178 57.4339L252.386 56.5455ZM256.409 52.25L257.43 53.9701L257.44 53.9637L256.409 52.25ZM270.5 53.5682L269.097 54.9932L269.102 54.9987L270.5 53.5682ZM273.477 86V88H275.477V86H273.477ZM268.114 86H266.114V88H268.114V86ZM266 57.1136L264.765 58.6869L264.765 58.6869L266 57.1136ZM255.318 57.6818L256.792 59.034L256.799 59.0264L255.318 57.6818ZM253.295 86V88H255.295V86H253.295ZM247.841 86H245.841V88H247.841V86ZM245.909 57.2955L244.529 58.7434L244.538 58.7519L245.909 57.2955ZM237.023 56.5682L235.978 54.8626L235.969 54.8686L237.023 56.5682ZM234.114 59.6591L232.371 58.6776L232.367 58.6844L234.114 59.6591ZM233.023 86V88H235.023V86H233.023ZM229.659 86V51.0909H225.659V86H229.659ZM227.659 53.0909H232.841V49.0909H227.659V53.0909ZM230.841 51.0909V56.5455H234.841V51.0909H230.841ZM232.841 58.5455H233.295V54.5455H232.841V58.5455ZM235.159 57.2725C235.738 55.7875 236.644 54.6848 237.891 53.8925L235.745 50.5166C233.75 51.7849 232.307 53.5761 231.432 55.8184L235.159 57.2725ZM237.902 53.8854C239.146 53.0831 240.701 52.6364 242.659 52.6364V48.6364C240.072 48.6364 237.733 49.2351 235.734 50.5237L237.902 53.8854ZM242.659 52.6364C244.658 52.6364 246.156 53.0874 247.281 53.856L249.537 50.5531C247.602 49.2308 245.266 48.6364 242.659 48.6364V52.6364ZM247.3 53.8686C248.507 54.6735 249.482 55.8204 250.208 57.3864L253.837 55.7045C252.836 53.5433 251.402 51.7962 249.518 50.5404L247.3 53.8686ZM252.023 58.5455H252.386V54.5455H252.023V58.5455ZM254.178 57.4339C254.895 55.9886 255.962 54.8406 257.429 53.9701L255.389 50.5299C253.28 51.7806 251.666 53.4963 250.595 55.6571L254.178 57.4339ZM257.44 53.9637C258.86 53.1094 260.632 52.6364 262.841 52.6364V48.6364C260.05 48.6364 257.534 49.2391 255.378 50.5363L257.44 53.9637ZM262.841 52.6364C265.506 52.6364 267.532 53.4528 269.097 54.9932L271.903 52.1431C269.498 49.7744 266.418 48.6364 262.841 48.6364V52.6364ZM269.102 54.9987C270.55 56.4135 271.477 58.8112 271.477 62.6364H275.477C275.477 58.2494 274.419 54.6017 271.898 52.1377L269.102 54.9987ZM271.477 62.6364V86H275.477V62.6364H271.477ZM273.477 84H268.114V88H273.477V84ZM270.114 86V62.6364H266.114V86H270.114ZM270.114 62.6364C270.114 59.7277 269.312 57.1707 267.235 55.5404L264.765 58.6869C265.506 59.2687 266.114 60.3935 266.114 62.6364H270.114ZM267.235 55.5404C265.45 54.139 263.348 53.4545 261.023 53.4545V57.4545C262.516 57.4545 263.732 57.8761 264.765 58.6869L267.235 55.5404ZM261.023 53.4545C258.141 53.4545 255.648 54.3437 253.838 56.3372L256.799 59.0264C257.685 58.0502 258.996 57.4545 261.023 57.4545V53.4545ZM253.845 56.3297C252.112 58.2175 251.295 60.5854 251.295 63.2727H255.295C255.295 61.4449 255.827 60.0855 256.792 59.034L253.845 56.3297ZM251.295 63.2727V86H255.295V63.2727H251.295ZM253.295 84H247.841V88H253.295V84ZM249.841 86V62.0909H245.841V86H249.841ZM249.841 62.0909C249.841 59.629 249.02 57.4772 247.28 55.8391L244.538 58.7519C245.374 59.5379 245.841 60.5831 245.841 62.0909H249.841ZM247.289 55.8476C245.576 54.2153 243.398 53.4545 240.932 53.4545V57.4545C242.527 57.4545 243.666 57.921 244.529 58.7433L247.289 55.8476ZM240.932 53.4545C239.162 53.4545 237.498 53.9317 235.978 54.8627L238.067 58.2737C238.972 57.7198 239.914 57.4545 240.932 57.4545V53.4545ZM235.969 54.8686C234.464 55.8016 233.266 57.0883 232.371 58.6776L235.856 60.6406C236.446 59.5935 237.187 58.8196 238.077 58.2678L235.969 54.8686ZM232.367 58.6844C231.451 60.3268 231.023 62.1793 231.023 64.1818H235.023C235.023 62.7601 235.322 61.5974 235.86 60.6338L232.367 58.6844ZM231.023 64.1818V86H235.023V64.1818H231.023ZM233.023 84H227.659V88H233.023V84ZM283.284 86H281.284V88H283.284V86ZM283.284 51.0909V49.0909H281.284V51.0909H283.284ZM288.466 51.0909H290.466V49.0909H288.466V51.0909ZM288.466 56.5455H286.466V58.5455H288.466V56.5455ZM288.92 56.5455V58.5455H290.287L290.784 57.2725L288.92 56.5455ZM292.443 52.2045L293.516 53.8926L293.527 53.8854L292.443 52.2045ZM304.034 52.2045L302.906 53.856L302.915 53.8624L302.925 53.8686L304.034 52.2045ZM307.648 56.5455L305.833 57.3864L306.37 58.5455H307.648V56.5455ZM308.011 56.5455V58.5455H309.252L309.803 57.4339L308.011 56.5455ZM312.034 52.25L313.055 53.9701L313.065 53.9637L312.034 52.25ZM326.125 53.5682L324.722 54.9932L324.727 54.9987L326.125 53.5682ZM329.102 86V88H331.102V86H329.102ZM323.739 86H321.739V88H323.739V86ZM321.625 57.1136L320.39 58.6869L320.39 58.6869L321.625 57.1136ZM310.943 57.6818L312.417 59.034L312.424 59.0264L310.943 57.6818ZM308.92 86V88H310.92V86H308.92ZM303.466 86H301.466V88H303.466V86ZM301.534 57.2955L300.154 58.7434L300.163 58.7519L301.534 57.2955ZM292.648 56.5682L291.603 54.8626L291.594 54.8686L292.648 56.5682ZM289.739 59.6591L287.996 58.6776L287.992 58.6844L289.739 59.6591ZM288.648 86V88H290.648V86H288.648ZM285.284 86V51.0909H281.284V86H285.284ZM283.284 53.0909H288.466V49.0909H283.284V53.0909ZM286.466 51.0909V56.5455H290.466V51.0909H286.466ZM288.466 58.5455H288.92V54.5455H288.466V58.5455ZM290.784 57.2725C291.363 55.7875 292.269 54.6848 293.516 53.8925L291.37 50.5166C289.375 51.7849 287.932 53.5761 287.057 55.8184L290.784 57.2725ZM293.527 53.8854C294.771 53.0831 296.326 52.6364 298.284 52.6364V48.6364C295.697 48.6364 293.358 49.2351 291.359 50.5237L293.527 53.8854ZM298.284 52.6364C300.283 52.6364 301.781 53.0874 302.906 53.856L305.162 50.5531C303.227 49.2308 300.891 48.6364 298.284 48.6364V52.6364ZM302.925 53.8686C304.132 54.6735 305.107 55.8204 305.833 57.3864L309.462 55.7045C308.461 53.5433 307.027 51.7962 305.143 50.5404L302.925 53.8686ZM307.648 58.5455H308.011V54.5455H307.648V58.5455ZM309.803 57.4339C310.52 55.9886 311.587 54.8406 313.054 53.9701L311.014 50.5299C308.905 51.7806 307.291 53.4963 306.22 55.6571L309.803 57.4339ZM313.065 53.9637C314.485 53.1094 316.257 52.6364 318.466 52.6364V48.6364C315.675 48.6364 313.159 49.2391 311.003 50.5363L313.065 53.9637ZM318.466 52.6364C321.131 52.6364 323.157 53.4528 324.722 54.9932L327.528 52.1431C325.123 49.7744 322.043 48.6364 318.466 48.6364V52.6364ZM324.727 54.9987C326.175 56.4135 327.102 58.8112 327.102 62.6364H331.102C331.102 58.2494 330.044 54.6017 327.523 52.1377L324.727 54.9987ZM327.102 62.6364V86H331.102V62.6364H327.102ZM329.102 84H323.739V88H329.102V84ZM325.739 86V62.6364H321.739V86H325.739ZM325.739 62.6364C325.739 59.7277 324.937 57.1707 322.86 55.5404L320.39 58.6869C321.131 59.2687 321.739 60.3935 321.739 62.6364H325.739ZM322.86 55.5404C321.075 54.139 318.973 53.4545 316.648 53.4545V57.4545C318.141 57.4545 319.357 57.8761 320.39 58.6869L322.86 55.5404ZM316.648 53.4545C313.766 53.4545 311.273 54.3437 309.463 56.3372L312.424 59.0264C313.31 58.0502 314.621 57.4545 316.648 57.4545V53.4545ZM309.47 56.3297C307.737 58.2175 306.92 60.5854 306.92 63.2727H310.92C310.92 61.4449 311.452 60.0855 312.417 59.034L309.47 56.3297ZM306.92 63.2727V86H310.92V63.2727H306.92ZM308.92 84H303.466V88H308.92V84ZM305.466 86V62.0909H301.466V86H305.466ZM305.466 62.0909C305.466 59.629 304.645 57.4772 302.905 55.8391L300.163 58.7519C300.999 59.5379 301.466 60.5831 301.466 62.0909H305.466ZM302.914 55.8476C301.201 54.2153 299.023 53.4545 296.557 53.4545V57.4545C298.152 57.4545 299.291 57.921 300.154 58.7433L302.914 55.8476ZM296.557 53.4545C294.787 53.4545 293.123 53.9317 291.603 54.8627L293.692 58.2737C294.597 57.7198 295.539 57.4545 296.557 57.4545V53.4545ZM291.594 54.8686C290.089 55.8016 288.891 57.0883 287.996 58.6776L291.481 60.6406C292.071 59.5935 292.812 58.8196 293.702 58.2678L291.594 54.8686ZM287.992 58.6844C287.076 60.3268 286.648 62.1793 286.648 64.1818H290.648C290.648 62.7601 290.947 61.5974 291.485 60.6338L287.992 58.6844ZM286.648 64.1818V86H290.648V64.1818H286.648ZM288.648 84H283.284V88H288.648V84ZM360.909 51.0909V49.0909H358.909V51.0909H360.909ZM366.273 51.0909H368.273V49.0909H366.273V51.0909ZM366.273 86V88H368.273V86H366.273ZM360.909 86H358.909V88H360.909V86ZM360.909 80.0909H362.909V78.0909H360.909V80.0909ZM360.545 80.0909V78.0909H359.266L358.73 79.2528L360.545 80.0909ZM356.727 84.6136L357.886 86.244L357.895 86.2372L356.727 84.6136ZM344.364 85.0227L343.371 86.7593L343.383 86.7659L344.364 85.0227ZM340.364 80.6591L338.572 81.548L338.575 81.5535L340.364 80.6591ZM338.909 51.0909V49.0909H336.909V51.0909H338.909ZM344.273 51.0909H346.273V49.0909H344.273V51.0909ZM346.409 79L344.952 80.3698L344.959 80.3775L346.409 79ZM355.977 80.25L355.098 78.4534L355.091 78.4572L355.977 80.25ZM359.477 77.1136L357.821 75.9919L357.817 75.9981L357.813 76.0042L359.477 77.1136ZM362.909 71.7273V51.0909H358.909V71.7273H362.909ZM360.909 53.0909H366.273V49.0909H360.909V53.0909ZM364.273 51.0909V86H368.273V51.0909H364.273ZM366.273 84H360.909V88H366.273V84ZM362.909 86V80.0909H358.909V86H362.909ZM360.909 78.0909H360.545V82.0909H360.909V78.0909ZM358.73 79.2528C358.069 80.6845 357.032 81.9305 355.559 82.99L357.895 86.2372C359.877 84.8119 361.386 83.0428 362.361 80.929L358.73 79.2528ZM355.569 82.9833C354.255 83.9169 352.505 84.4545 350.182 84.4545V88.4545C353.131 88.4545 355.745 87.7649 357.886 86.244L355.569 82.9833ZM350.182 84.4545C348.301 84.4545 346.707 84.0462 345.344 83.2796L343.383 86.7659C345.414 87.9084 347.699 88.4545 350.182 88.4545V84.4545ZM345.356 83.2862C344.039 82.5336 342.966 81.391 342.152 79.7647L338.575 81.5535C339.701 83.8059 341.295 85.5725 343.371 86.7592L345.356 83.2862ZM342.155 79.7702C341.363 78.1731 340.909 76.0397 340.909 73.2727H336.909C336.909 76.4452 337.425 79.236 338.572 81.548L342.155 79.7702ZM340.909 73.2727V51.0909H336.909V73.2727H340.909ZM338.909 53.0909H344.273V49.0909H338.909V53.0909ZM342.273 51.0909V72.9091H346.273V51.0909H342.273ZM342.273 72.9091C342.273 75.8434 343.105 78.4046 344.952 80.3698L347.866 77.6302C346.865 76.5651 346.273 75.0657 346.273 72.9091H342.273ZM344.959 80.3775C346.803 82.3184 349.174 83.2727 351.909 83.2727V79.2727C350.19 79.2727 348.894 78.7119 347.859 77.6225L344.959 80.3775ZM351.909 83.2727C353.594 83.2727 355.252 82.8399 356.864 82.0428L355.091 78.4572C353.945 79.0237 352.891 79.2727 351.909 79.2727V83.2727ZM356.856 82.0466C358.597 81.1952 360.024 79.8989 361.141 78.223L357.813 76.0042C357.052 77.1465 356.146 77.9411 355.099 78.4534L356.856 82.0466ZM361.133 78.2353C362.368 76.4131 362.909 74.1968 362.909 71.7273H358.909C358.909 73.6214 358.496 74.996 357.821 75.9919L361.133 78.2353ZM381.46 86V88H383.46V86H381.46ZM376.097 86H374.097V88H376.097V86ZM376.097 51.0909V49.0909H374.097V51.0909H376.097ZM381.278 51.0909H383.278V49.0909H381.278V51.0909ZM381.278 56.5455H379.278V58.5455H381.278V56.5455ZM381.733 56.5455V58.5455H383.013L383.549 57.3836L381.733 56.5455ZM385.46 52.2727L386.545 53.9531L386.556 53.9461L385.46 52.2727ZM398.119 52.0909L397.159 53.8456L397.171 53.8518L398.119 52.0909ZM402.256 56.4545L400.47 57.3545L400.472 57.3601L402.256 56.4545ZM403.733 86V88H405.733V86H403.733ZM398.369 86H396.369V88H398.369V86ZM396.233 57.7727L394.762 59.1281L394.769 59.1353L396.233 57.7727ZM385.778 56.5682L384.814 54.8161L384.805 54.8208L385.778 56.5682ZM382.619 59.8182L380.861 58.8644L380.861 58.8644L382.619 59.8182ZM379.46 65V86H383.46V65H379.46ZM381.46 84H376.097V88H381.46V84ZM378.097 86V51.0909H374.097V86H378.097ZM376.097 53.0909H381.278V49.0909H376.097V53.0909ZM379.278 51.0909V56.5455H383.278V51.0909H379.278ZM381.278 58.5455H381.733V54.5455H381.278V58.5455ZM383.549 57.3836C384.205 55.9611 385.191 54.8266 386.545 53.9531L384.376 50.5924C382.396 51.8703 380.897 53.5844 379.917 55.7073L383.549 57.3836ZM386.556 53.9461C387.807 53.1271 389.544 52.6364 391.915 52.6364V48.6364C389.013 48.6364 386.447 49.2365 384.365 50.5993L386.556 53.9461ZM391.915 52.6364C394 52.6364 395.727 53.0622 397.16 53.8456L399.079 50.3363C396.966 49.1802 394.557 48.6364 391.915 48.6364V52.6364ZM397.171 53.8518C398.551 54.595 399.652 55.7326 400.47 57.3545L404.042 55.5546C402.889 53.2674 401.233 51.4959 399.068 50.33L397.171 53.8518ZM400.472 57.3601C401.272 58.9356 401.733 61.0541 401.733 63.8182H405.733C405.733 60.6429 405.209 57.8523 404.039 55.549L400.472 57.3601ZM401.733 63.8182V86H405.733V63.8182H401.733ZM403.733 84H398.369V88H403.733V84ZM400.369 86V64.1818H396.369V86H400.369ZM400.369 64.1818C400.369 61.0958 399.562 58.4142 397.697 56.4102L394.769 59.1353C395.752 60.1918 396.369 61.7829 396.369 64.1818H400.369ZM397.704 56.4174C395.832 54.3859 393.302 53.4545 390.369 53.4545V57.4545C392.406 57.4545 393.786 58.0686 394.762 59.1281L397.704 56.4174ZM390.369 53.4545C388.359 53.4545 386.49 53.8934 384.814 54.8162L386.743 58.3202C387.764 57.7581 388.956 57.4545 390.369 57.4545V53.4545ZM384.805 54.8208C383.12 55.7595 381.803 57.1281 380.861 58.8644L384.377 60.772C384.981 59.6598 385.771 58.8617 386.751 58.3156L384.805 54.8208ZM380.861 58.8644C379.895 60.6465 379.46 62.7194 379.46 65H383.46C383.46 63.22 383.799 61.8384 384.377 60.772L380.861 58.8644ZM413.534 86H411.534V88H413.534V86ZM413.534 51.0909V49.0909H411.534V51.0909H413.534ZM418.898 51.0909H420.898V49.0909H418.898V51.0909ZM418.898 86V88H420.898V86H418.898ZM413.557 44.2045L412.172 45.6479L412.18 45.6549L412.187 45.6618L413.557 44.2045ZM413.557 39.0682L412.187 37.6109L412.18 37.6178L412.172 37.6248L413.557 39.0682ZM418.943 39.0682L417.559 40.5115L417.566 40.5185L417.573 40.5254L418.943 39.0682ZM418.943 44.2045L417.573 42.7473L417.566 42.7542L417.559 42.7612L418.943 44.2045ZM415.534 86V51.0909H411.534V86H415.534ZM413.534 53.0909H418.898V49.0909H413.534V53.0909ZM416.898 51.0909V86H420.898V51.0909H416.898ZM418.898 84H413.534V88H418.898V84ZM416.261 43.2727C415.722 43.2727 415.311 43.1086 414.927 42.7473L412.187 45.6618C413.318 46.7247 414.71 47.2727 416.261 47.2727V43.2727ZM414.941 42.7612C414.579 42.414 414.443 42.0741 414.443 41.6364H410.443C410.443 43.1986 411.049 44.5708 412.172 45.6479L414.941 42.7612ZM414.443 41.6364C414.443 41.1986 414.579 40.8587 414.941 40.5115L412.172 37.6248C411.049 38.7019 410.443 40.0741 410.443 41.6364H414.443ZM414.927 40.5254C415.311 40.1641 415.722 40 416.261 40V36C414.71 36 413.318 36.548 412.187 37.6109L414.927 40.5254ZM416.261 40C416.8 40 417.195 40.163 417.559 40.5115L420.328 37.6248C419.206 36.5491 417.813 36 416.261 36V40ZM417.573 40.5254C417.947 40.8765 418.08 41.2125 418.08 41.6364H422.08C422.08 40.0602 421.455 38.6841 420.313 37.6109L417.573 40.5254ZM418.08 41.6364C418.08 42.0602 417.947 42.3962 417.573 42.7473L420.313 45.6618C421.455 44.5886 422.08 43.2125 422.08 41.6364H418.08ZM417.559 42.7612C417.195 43.1097 416.8 43.2727 416.261 43.2727V47.2727C417.813 47.2727 419.206 46.7236 420.328 45.6479L417.559 42.7612ZM443.903 51.0909H445.903V49.0909H443.903V51.0909ZM443.903 55.6364V57.6364H445.903V55.6364H443.903ZM425.812 55.6364H423.812V57.6364H425.812V55.6364ZM425.812 51.0909V49.0909H423.812V51.0909H425.812ZM431.085 42.7273V40.7273H429.085V42.7273H431.085ZM436.449 42.7273H438.449V40.7273H436.449V42.7273ZM437.108 79.4091L435.378 80.4125L435.39 80.4331L435.402 80.4534L437.108 79.4091ZM438.835 80.9091L438.142 82.7851L438.166 82.7941L438.191 82.8024L438.835 80.9091ZM442.54 81.1818L442.856 83.1567L442.894 83.1506L442.932 83.143L442.54 81.1818ZM443.449 81L445.399 80.5583L444.969 78.6564L443.057 79.0388L443.449 81ZM444.54 85.8182L445.242 87.6908L446.876 87.0782L446.49 85.3765L444.54 85.8182ZM443.017 86.2273L442.607 84.2697L442.586 84.2742L442.564 84.2793L443.017 86.2273ZM436.085 85.4773L435.261 87.2993L435.268 87.3025L436.085 85.4773ZM432.494 82.5L430.859 83.6519L430.864 83.6581L430.868 83.6642L432.494 82.5ZM441.903 51.0909V55.6364H445.903V51.0909H441.903ZM443.903 53.6364H425.812V57.6364H443.903V53.6364ZM427.812 55.6364V51.0909H423.812V55.6364H427.812ZM425.812 53.0909H443.903V49.0909H425.812V53.0909ZM431.085 44.7273H436.449V40.7273H431.085V44.7273ZM434.449 42.7273V76H438.449V42.7273H434.449ZM434.449 76C434.449 77.643 434.676 79.2016 435.378 80.4125L438.838 78.4057C438.662 78.1014 438.449 77.3873 438.449 76H434.449ZM435.402 80.4534C436.049 81.5104 436.954 82.3461 438.142 82.7851L439.529 79.0331C439.322 78.9569 439.076 78.7927 438.814 78.3648L435.402 80.4534ZM438.191 82.8024C439.12 83.1188 440.089 83.2727 441.085 83.2727V79.2727C440.506 79.2727 439.975 79.1843 439.48 79.0158L438.191 82.8024ZM441.085 83.2727C441.732 83.2727 442.333 83.2404 442.856 83.1567L442.224 79.2069C441.989 79.2444 441.62 79.2727 441.085 79.2727V83.2727ZM442.932 83.143C443.311 83.0672 443.614 83.0066 443.841 82.9612L443.057 79.0388C442.829 79.0843 442.526 79.1449 442.148 79.2207L442.932 83.143ZM441.498 81.4417L442.589 86.2598L446.49 85.3765L445.399 80.5583L441.498 81.4417ZM443.838 83.9455C443.613 84.0298 443.219 84.1417 442.607 84.2697L443.427 88.1849C444.118 88.0401 444.739 87.8793 445.242 87.6908L443.838 83.9455ZM442.564 84.2793C442.115 84.3838 441.454 84.4545 440.54 84.4545V88.4545C441.625 88.4545 442.616 88.3738 443.47 88.1753L442.564 84.2793ZM440.54 84.4545C439.321 84.4545 438.114 84.1944 436.903 83.652L435.268 87.3025C436.966 88.0631 438.728 88.4545 440.54 88.4545V84.4545ZM436.91 83.6552C435.803 83.1543 434.878 82.3945 434.121 81.3358L430.868 83.6642C432.019 85.2722 433.488 86.4972 435.261 87.2993L436.91 83.6552ZM434.129 81.3481C433.48 80.4266 433.085 79.1743 433.085 77.4545H429.085C429.085 79.7954 429.63 81.9067 430.859 83.6519L434.129 81.3481ZM433.085 77.4545V42.7273H429.085V77.4545H433.085ZM452.994 98.8636L453.411 96.9074L453.391 96.9032L453.37 96.8993L452.994 98.8636ZM451.517 98.4545L449.595 97.9002L449.134 99.4992L450.623 100.243L451.517 98.4545ZM452.881 93.7273L453.376 91.7897L451.497 91.3088L450.959 93.173L452.881 93.7273ZM456.335 94.0909L456.154 92.0991L456.154 92.0991L456.335 94.0909ZM458.994 92.75L457.58 91.3358L457.567 91.3494L457.553 91.3632L458.994 92.75ZM461.153 88.9091L463.031 89.599L463.031 89.5976L461.153 88.9091ZM462.153 86.1818L464.031 86.8703L464.284 86.1807L464.03 85.4913L462.153 86.1818ZM449.244 51.0909V49.0909H446.378L447.367 51.7814L449.244 51.0909ZM455.062 51.0909L456.952 50.4363L456.486 49.0909H455.062V51.0909ZM464.699 78.9091L462.809 79.5637L463.275 80.9091H464.699V78.9091ZM465.062 78.9091V80.9091H466.486L466.952 79.5637L465.062 78.9091ZM474.699 51.0909V49.0909H473.275L472.809 50.4363L474.699 51.0909ZM480.517 51.0909L482.392 51.7857L483.391 49.0909H480.517V51.0909ZM465.699 91.0909L463.823 90.3961L463.823 90.3973L465.699 91.0909ZM463.222 95.5682L461.685 94.2878L461.677 94.2975L463.222 95.5682ZM459.79 98.2273L458.981 96.3979L458.974 96.4014L459.79 98.2273ZM455.426 97.0909C454.624 97.0909 453.957 97.0237 453.411 96.9074L452.578 100.82C453.456 101.007 454.41 101.091 455.426 101.091V97.0909ZM453.37 96.8993C453.047 96.8375 452.802 96.7808 452.625 96.7316C452.432 96.6782 452.381 96.6505 452.411 96.6657L450.623 100.243C451.167 100.516 451.905 100.691 452.618 100.828L453.37 96.8993ZM453.439 99.0089L454.802 94.2816L450.959 93.173L449.595 97.9002L453.439 99.0089ZM452.385 95.6649C453.839 96.0367 455.227 96.1999 456.516 96.0827L456.154 92.0991C455.444 92.1637 454.529 92.0845 453.376 91.7897L452.385 95.6649ZM456.516 96.0827C458.049 95.9434 459.368 95.2456 460.435 94.1368L457.553 91.3632C457.075 91.8605 456.621 92.0566 456.154 92.0991L456.516 96.0827ZM460.409 94.1642C461.497 93.076 462.339 91.48 463.031 89.599L459.276 88.2192C458.664 89.8837 458.068 90.8482 457.58 91.3358L460.409 94.1642ZM463.031 89.5976L464.031 86.8703L460.276 85.4933L459.276 88.2206L463.031 89.5976ZM464.03 85.4913L451.121 50.4004L447.367 51.7814L460.276 86.8723L464.03 85.4913ZM449.244 53.0909H455.062V49.0909H449.244V53.0909ZM453.173 51.7456L462.809 79.5637L466.589 78.2544L456.952 50.4363L453.173 51.7456ZM464.699 80.9091H465.062V76.9091H464.699V80.9091ZM466.952 79.5637L476.589 51.7456L472.809 50.4363L463.173 78.2544L466.952 79.5637ZM474.699 53.0909H480.517V49.0909H474.699V53.0909ZM478.642 50.3961L463.823 90.3961L467.574 91.7857L482.392 51.7857L478.642 50.3961ZM463.823 90.3973C463.216 92.038 462.493 93.3183 461.685 94.2878L464.758 96.8486C465.92 95.4544 466.848 93.7499 467.575 91.7845L463.823 90.3973ZM461.677 94.2975C460.873 95.2749 459.974 95.9592 458.981 96.3979L460.598 100.057C462.211 99.3438 463.601 98.2554 464.766 96.8389L461.677 94.2975ZM458.974 96.4014C457.978 96.8465 456.808 97.0909 455.426 97.0909V101.091C457.287 101.091 459.026 100.76 460.606 100.053L458.974 96.4014Z"
            fill="white" mask="url(#path-7-outside-1_11_3)" />
        <g filter="url(#filter0_d_11_3)">
            <circle cx="84" cy="35" r="35" fill="#D9D9D9" fill-opacity="0.8" shape-rendering="crispEdges" />
            <circle cx="84" cy="35" r="33.5" stroke="white" stroke-width="3" shape-rendering="crispEdges" />
        </g>
        <path
            d="M66.0625 20.6719C66.0625 17.9824 67.1309 15.4031 69.0326 13.5014C70.9344 11.5996 73.5137 10.5313 76.2031 10.5312C78.8926 10.5313 81.4719 11.5996 83.3736 13.5014C85.2754 15.4031 86.3437 17.9824 86.3437 20.6719C86.3437 23.3613 85.2754 25.9406 83.3736 27.8424C81.4719 29.7441 78.8926 30.8125 76.2031 30.8125C73.5137 30.8125 70.9344 29.7441 69.0326 27.8424C67.1309 25.9406 66.0625 23.3613 66.0625 20.6719ZM90.0312 26.2031C90.0312 25.1136 90.2459 24.0347 90.6628 23.028C91.0798 22.0214 91.6909 21.1068 92.4613 20.3363C93.2318 19.5659 94.1464 18.9548 95.153 18.5378C96.1597 18.1209 97.2386 17.9062 98.3281 17.9062C99.4177 17.9062 100.497 18.1209 101.503 18.5378C102.51 18.9548 103.424 19.5659 104.195 20.3363C104.965 21.1068 105.576 22.0214 105.993 23.028C106.41 24.0347 106.625 25.1136 106.625 26.2031C106.625 28.4036 105.751 30.5139 104.195 32.0699C102.639 33.6259 100.529 34.5 98.3281 34.5C96.1277 34.5 94.0173 33.6259 92.4613 32.0699C90.9054 30.5139 90.0312 28.4036 90.0312 26.2031ZM58.6875 52.0156C58.6875 47.3702 60.5329 42.915 63.8177 39.6302C67.1025 36.3454 71.5577 34.5 76.2031 34.5C80.8486 34.5 85.3037 36.3454 88.5885 39.6302C91.8734 42.915 93.7187 47.3702 93.7187 52.0156V52.023L93.7163 52.3155C93.7111 52.6282 93.6264 52.9344 93.4703 53.2053C93.3142 53.4762 93.0918 53.703 92.8239 53.8643C87.807 56.8855 82.0595 58.4777 76.2031 58.4687C70.1261 58.4687 64.4375 56.7873 59.5848 53.8643C59.3165 53.7033 59.0935 53.4766 58.937 53.2057C58.7804 52.9347 58.6954 52.6284 58.69 52.3155L58.6875 52.0156ZM97.4062 52.023L97.4038 52.377C97.39 53.1964 97.1944 54.0025 96.831 54.737C101.123 55.0017 105.409 54.1461 109.27 52.2541C109.569 52.1081 109.822 51.8842 110.004 51.6059C110.186 51.3277 110.289 51.0055 110.303 50.6734C110.389 48.6114 109.942 46.562 109.004 44.7236C108.067 42.8852 106.67 41.3201 104.95 40.18C103.23 39.0398 101.244 38.3632 99.1855 38.2157C97.127 38.0682 95.0653 38.4548 93.2 39.338C95.9366 42.9974 97.4118 47.4461 97.4038 52.0156L97.4062 52.023Z"
            fill="#18181B" />
    </g>
    <defs>
        <filter id="filter0_d_11_3" x="45" y="0" width="78" height="78" filterUnits="userSpaceOnUse"
            color-interpolation-filters="sRGB">
            <feFlood flood-opacity="0" result="BackgroundImageFix" />
            <feColorMatrix in="SourceAlpha" type="matrix" values="0 0 0 0 0 0 0 0 0 0 0 0 0 0 0 0 0 0 127 0"
                result="hardAlpha" />
            <feOffset dy="4" />
            <feGaussianBlur stdDeviation="2" />
            <feComposite in2="hardAlpha" operator="out" />
            <feColorMatrix type="matrix" values="0 0 0 0 0 0 0 0 0 0 0 0 0 0 0 0 0 0 0.25 0" />
            <feBlend mode="normal" in2="BackgroundImageFix" result="effect1_dropShadow_11_3" />
            <feBlend mode="normal" in="SourceGraphic" in2="effect1_dropShadow_11_3" result="shape" />
        </filter>
        <clipPath id="clip0_11_3">
            <rect width="726" height="113" fill="white" />
        </clipPath>
    </defs>
</svg>